<svg width="345" height="40" viewBox="0 0 345 40" fill="none" xmlns="http://www.w3.org/2000/svg">
<path d="M29.0625 28.6875H13.5L11.9375 32.5938H13.5C15.0417 32.5938 16.1354 32.8958 16.7812 33.5C17.4479 34.0833 17.7812 34.8542 17.7812 35.8125C17.7812 36.75 17.4479 37.5208 16.7812 38.125C16.1354 38.7083 15.0417 39 13.5 39H4.875C3.33333 39 2.23958 38.7083 1.59375 38.125C0.927083 37.5208 0.59375 36.7396 0.59375 35.7812C0.59375 34.8229 0.9375 34.0417 1.625 33.4375C2.3125 32.8333 3.44792 32.5521 5.03125 32.5938L15.0938 7.53125H10.9062C9.36458 7.53125 8.26042 7.23958 7.59375 6.65625C6.94792 6.05208 6.625 5.27083 6.625 4.3125C6.625 3.35417 6.94792 2.58333 7.59375 2C8.26042 1.39583 9.36458 1.09375 10.9062 1.09375L24.75 1.125L37.5 32.5938C39 32.5938 39.9896 32.7604 40.4688 33.0938C41.4271 33.7812 41.9062 34.6875 41.9062 35.8125C41.9062 36.75 41.5833 37.5208 40.9375 38.125C40.2917 38.7083 39.1979 39 37.6562 39H29.0312C27.4896 39 26.3854 38.7083 25.7188 38.125C25.0729 37.5208 24.75 36.7396 24.75 35.7812C24.75 34.8438 25.0729 34.0833 25.7188 33.5C26.3854 32.8958 27.4896 32.5938 29.0312 32.5938H30.5938L29.0625 28.6875ZM26.4062 22.2812L21.25 9.59375L16.0625 22.2812H26.4062ZM53.0625 24.5312V32.5938H55.375C56.9167 32.5938 58.0104 32.8958 58.6562 33.5C59.3229 34.0833 59.6562 34.8542 59.6562 35.8125C59.6562 36.75 59.3229 37.5208 58.6562 38.125C58.0104 38.7083 56.9167 39 55.375 39H45.6562C44.1146 39 43.0104 38.7083 42.3438 38.125C41.6979 37.5208 41.375 36.7396 41.375 35.7812C41.375 34.8438 41.7083 34.0833 42.375 33.5C43.0417 32.8958 44.1354 32.5938 45.6562 32.5938H46.6562V7.53125H45.6562C44.1146 7.53125 43.0104 7.23958 42.3438 6.65625C41.6979 6.05208 41.375 5.27083 41.375 4.3125C41.375 3.35417 41.6979 2.58333 42.3438 2C43.0104 1.39583 44.1146 1.09375 45.6562 1.09375L60.1562 1.125C64.6771 1.125 68.1771 2.25 70.6562 4.5C73.1562 6.72917 74.4062 9.44792 74.4062 12.6562C74.4062 14.6562 73.8229 16.4792 72.6562 18.125C71.4896 19.75 69.7292 21.1979 67.375 22.4688C68.7292 23.6562 70.1771 25.1771 71.7188 27.0312C72.6771 28.2188 73.9688 30.0729 75.5938 32.5938C77.2188 32.5938 78.2917 32.7604 78.8125 33.0938C79.75 33.7396 80.2188 34.6458 80.2188 35.8125C80.2188 36.75 79.8958 37.5208 79.25 38.125C78.6042 38.7083 77.5104 39 75.9688 39H72.3125C67.125 30.9792 62.8229 26.1562 59.4062 24.5312H53.0625ZM53.0625 18.125H58.0625C59.9167 18.125 61.5729 17.8438 63.0312 17.2812C64.9896 16.5312 66.3021 15.7396 66.9688 14.9062C67.6562 14.0729 68 13.25 68 12.4375C68 11.2292 67.3542 10.1146 66.0625 9.09375C64.7708 8.05208 62.8854 7.53125 60.4062 7.53125H53.0625V18.125ZM101.219 7.53125V32.5938H105.531C107.073 32.5938 108.167 32.8958 108.812 33.5C109.479 34.0833 109.812 34.8542 109.812 35.8125C109.812 36.75 109.479 37.5208 108.812 38.125C108.167 38.7083 107.073 39 105.531 39H90.5312C88.9896 39 87.8854 38.7083 87.2188 38.125C86.5729 37.5208 86.25 36.7396 86.25 35.7812C86.25 34.8438 86.5729 34.0833 87.2188 33.5C87.8854 32.8958 88.9896 32.5938 90.5312 32.5938H94.8125V7.53125H87.875V13.5938C87.875 15.1354 87.5729 16.2396 86.9688 16.9062C86.3854 17.5521 85.6146 17.875 84.6562 17.875C83.7188 17.875 82.9479 17.5521 82.3438 16.9062C81.7604 16.2396 81.4688 15.1354 81.4688 13.5938V1.09375L114.656 1.125V13.5938C114.656 15.1354 114.354 16.2396 113.75 16.9062C113.167 17.5521 112.396 17.875 111.438 17.875C110.5 17.875 109.729 17.5521 109.125 16.9062C108.542 16.2396 108.25 15.1354 108.25 13.5938V7.53125H101.219ZM139.75 7.53125V32.5938H146.219C147.76 32.5938 148.854 32.8958 149.5 33.5C150.167 34.0833 150.5 34.8542 150.5 35.8125C150.5 36.75 150.167 37.5208 149.5 38.125C148.854 38.7083 147.76 39 146.219 39H126.875C125.333 39 124.229 38.7083 123.562 38.125C122.917 37.5208 122.594 36.7396 122.594 35.7812C122.594 34.8438 122.917 34.0833 123.562 33.5C124.229 32.8958 125.333 32.5938 126.875 32.5938H133.344V7.53125H126.875C125.333 7.53125 124.229 7.23958 123.562 6.65625C122.917 6.05208 122.594 5.27083 122.594 4.3125C122.594 3.35417 122.917 2.58333 123.562 2C124.229 1.39583 125.333 1.09375 126.875 1.09375L146.219 1.125C147.76 1.125 148.854 1.41667 149.5 2C150.167 2.58333 150.5 3.35417 150.5 4.3125C150.5 5.27083 150.167 6.05208 149.5 6.65625C148.854 7.23958 147.76 7.53125 146.219 7.53125H139.75ZM170.594 23.2188V32.5938H177.156C178.698 32.5938 179.792 32.8958 180.438 33.5C181.104 34.0833 181.438 34.8542 181.438 35.8125C181.438 36.75 181.104 37.5208 180.438 38.125C179.792 38.7083 178.698 39 177.156 39H163.188C161.646 39 160.542 38.7083 159.875 38.125C159.229 37.5208 158.906 36.7396 158.906 35.7812C158.906 34.8438 159.24 34.0833 159.906 33.5C160.573 32.8958 161.667 32.5938 163.188 32.5938H164.188V7.53125H163.188C161.646 7.53125 160.542 7.23958 159.875 6.65625C159.229 6.05208 158.906 5.27083 158.906 4.3125C158.906 3.35417 159.229 2.58333 159.875 2C160.542 1.39583 161.646 1.09375 163.188 1.09375L193.344 1.125V10.9062C193.344 12.4271 193.042 13.5208 192.438 14.1875C191.854 14.8333 191.083 15.1562 190.125 15.1562C189.188 15.1562 188.417 14.8333 187.812 14.1875C187.229 13.5417 186.938 12.4479 186.938 10.9062V7.53125H170.594V16.8125H176.219C176.219 15.1458 176.375 14.0729 176.688 13.5938C177.333 12.5729 178.25 12.0625 179.438 12.0625C180.375 12.0625 181.135 12.3958 181.719 13.0625C182.323 13.7083 182.625 14.8021 182.625 16.3438V23.7188C182.625 25.2604 182.323 26.3646 181.719 27.0312C181.135 27.6771 180.365 28 179.406 28C178.24 28 177.333 27.4896 176.688 26.4688C176.375 25.9896 176.219 24.9062 176.219 23.2188H170.594ZM221.25 28.6875H205.688L204.125 32.5938H205.688C207.229 32.5938 208.323 32.8958 208.969 33.5C209.635 34.0833 209.969 34.8542 209.969 35.8125C209.969 36.75 209.635 37.5208 208.969 38.125C208.323 38.7083 207.229 39 205.688 39H197.062C195.521 39 194.427 38.7083 193.781 38.125C193.115 37.5208 192.781 36.7396 192.781 35.7812C192.781 34.8229 193.125 34.0417 193.812 33.4375C194.5 32.8333 195.635 32.5521 197.219 32.5938L207.281 7.53125H203.094C201.552 7.53125 200.448 7.23958 199.781 6.65625C199.135 6.05208 198.812 5.27083 198.812 4.3125C198.812 3.35417 199.135 2.58333 199.781 2C200.448 1.39583 201.552 1.09375 203.094 1.09375L216.938 1.125L229.688 32.5938C231.188 32.5938 232.177 32.7604 232.656 33.0938C233.615 33.7812 234.094 34.6875 234.094 35.8125C234.094 36.75 233.771 37.5208 233.125 38.125C232.479 38.7083 231.385 39 229.844 39H221.219C219.677 39 218.573 38.7083 217.906 38.125C217.26 37.5208 216.938 36.7396 216.938 35.7812C216.938 34.8438 217.26 34.0833 217.906 33.5C218.573 32.8958 219.677 32.5938 221.219 32.5938H222.781L221.25 28.6875ZM218.594 22.2812L213.438 9.59375L208.25 22.2812H218.594ZM261.906 2.75C262.302 2.20833 262.729 1.80208 263.188 1.53125C263.667 1.26042 264.177 1.125 264.719 1.125C265.656 1.125 266.417 1.44792 267 2.09375C267.604 2.73958 267.906 3.83333 267.906 5.375V10.8125C267.906 12.3542 267.604 13.4583 267 14.125C266.417 14.7708 265.656 15.0938 264.719 15.0938C263.865 15.0938 263.177 14.8542 262.656 14.375C262.135 13.8958 261.75 13 261.5 11.6875C261.354 10.8125 261.062 10.1354 260.625 9.65625C259.771 8.71875 258.573 7.96875 257.031 7.40625C255.51 6.84375 253.979 6.5625 252.438 6.5625C250.521 6.5625 248.76 6.97917 247.156 7.8125C245.552 8.64583 244.135 10 242.906 11.875C241.677 13.75 241.062 15.9792 241.062 18.5625V22.7188C241.062 25.8021 242.177 28.375 244.406 30.4375C246.656 32.5 249.771 33.5312 253.75 33.5312C256.125 33.5312 258.135 33.2083 259.781 32.5625C260.74 32.1875 261.76 31.4479 262.844 30.3438C263.51 29.6771 264.031 29.25 264.406 29.0625C264.781 28.8542 265.208 28.75 265.688 28.75C266.542 28.75 267.292 29.0729 267.938 29.7188C268.583 30.3646 268.906 31.125 268.906 32C268.906 32.875 268.469 33.8125 267.594 34.8125C266.323 36.2708 264.688 37.4167 262.688 38.25C260 39.375 257.031 39.9375 253.781 39.9375C249.99 39.9375 246.573 39.1562 243.531 37.5938C241.073 36.3438 238.979 34.375 237.25 31.6875C235.521 28.9792 234.656 26.0312 234.656 22.8438V18.5C234.656 15.1667 235.427 12.0625 236.969 9.1875C238.531 6.29167 240.688 4.0625 243.438 2.5C246.188 0.9375 249.104 0.15625 252.188 0.15625C254.042 0.15625 255.771 0.375 257.375 0.8125C259 1.22917 260.51 1.875 261.906 2.75ZM293.406 7.53125V32.5938H297.719C299.26 32.5938 300.354 32.8958 301 33.5C301.667 34.0833 302 34.8542 302 35.8125C302 36.75 301.667 37.5208 301 38.125C300.354 38.7083 299.26 39 297.719 39H282.719C281.177 39 280.073 38.7083 279.406 38.125C278.76 37.5208 278.438 36.7396 278.438 35.7812C278.438 34.8438 278.76 34.0833 279.406 33.5C280.073 32.8958 281.177 32.5938 282.719 32.5938H287V7.53125H280.062V13.5938C280.062 15.1354 279.76 16.2396 279.156 16.9062C278.573 17.5521 277.802 17.875 276.844 17.875C275.906 17.875 275.135 17.5521 274.531 16.9062C273.948 16.2396 273.656 15.1354 273.656 13.5938V1.09375L306.844 1.125V13.5938C306.844 15.1354 306.542 16.2396 305.938 16.9062C305.354 17.5521 304.583 17.875 303.625 17.875C302.688 17.875 301.917 17.5521 301.312 16.9062C300.729 16.2396 300.438 15.1354 300.438 13.5938V7.53125H293.406ZM319.375 37.375C318.812 38.0417 318.354 38.4688 318 38.6562C317.667 38.8438 317.25 38.9375 316.75 38.9375C315.771 38.9375 314.979 38.6146 314.375 37.9688C313.792 37.3021 313.5 36.2083 313.5 34.6875V30.375C313.5 28.8333 313.792 27.7396 314.375 27.0938C314.979 26.4271 315.771 26.0938 316.75 26.0938C317.5 26.0938 318.125 26.2917 318.625 26.6875C319.146 27.0833 319.542 27.75 319.812 28.6875C320.083 29.6042 320.365 30.2292 320.656 30.5625C321.26 31.2083 322.333 31.8646 323.875 32.5312C325.417 33.1979 327.104 33.5312 328.938 33.5312C331.792 33.5312 334.135 32.8646 335.969 31.5312C337.135 30.7188 337.719 29.7188 337.719 28.5312C337.719 27.7396 337.438 27 336.875 26.3125C336.312 25.6042 335.396 25.0208 334.125 24.5625C333.292 24.25 331.427 23.8229 328.531 23.2812C325.031 22.6354 322.385 21.8542 320.594 20.9375C318.802 20.0208 317.385 18.7292 316.344 17.0625C315.302 15.3958 314.781 13.5938 314.781 11.6562C314.781 8.59375 316.062 5.91667 318.625 3.625C321.188 1.3125 324.521 0.15625 328.625 0.15625C330.271 0.15625 331.792 0.34375 333.188 0.71875C334.604 1.07292 335.885 1.625 337.031 2.375C337.865 1.5625 338.698 1.15625 339.531 1.15625C340.469 1.15625 341.229 1.48958 341.812 2.15625C342.417 2.80208 342.719 3.88542 342.719 5.40625V10.2188C342.719 11.7604 342.417 12.8646 341.812 13.5312C341.229 14.1771 340.469 14.5 339.531 14.5C338.74 14.5 338.052 14.2604 337.469 13.7812C337.01 13.4271 336.667 12.7188 336.438 11.6562C336.208 10.5938 335.917 9.83333 335.562 9.375C334.958 8.58333 334.052 7.91667 332.844 7.375C331.635 6.83333 330.24 6.5625 328.656 6.5625C326.344 6.5625 324.51 7.10417 323.156 8.1875C321.823 9.25 321.156 10.3646 321.156 11.5312C321.156 12.3229 321.427 13.0938 321.969 13.8438C322.531 14.5729 323.344 15.1458 324.406 15.5625C325.115 15.8542 327.104 16.3229 330.375 16.9688C333.667 17.6146 336.188 18.3229 337.938 19.0938C339.708 19.8646 341.177 21.0729 342.344 22.7188C343.51 24.3646 344.094 26.3229 344.094 28.5938C344.094 31.7604 342.979 34.2917 340.75 36.1875C337.792 38.6875 334.021 39.9375 329.438 39.9375C327.667 39.9375 325.938 39.7188 324.25 39.2812C322.583 38.8646 320.958 38.2292 319.375 37.375Z" fill="white"/>
</svg>
