<svg width="344" height="43" viewBox="0 0 344 43" fill="none" xmlns="http://www.w3.org/2000/svg">
<path d="M29.0625 30.6875H13.5L11.9375 34.5938H13.5C15.0417 34.5938 16.1354 34.8958 16.7812 35.5C17.4479 36.0833 17.7812 36.8542 17.7812 37.8125C17.7812 38.75 17.4479 39.5208 16.7812 40.125C16.1354 40.7083 15.0417 41 13.5 41H4.875C3.33333 41 2.23958 40.7083 1.59375 40.125C0.927083 39.5208 0.59375 38.7396 0.59375 37.7812C0.59375 36.8229 0.9375 36.0417 1.625 35.4375C2.3125 34.8333 3.44792 34.5521 5.03125 34.5938L15.0938 9.53125H10.9062C9.36458 9.53125 8.26042 9.23958 7.59375 8.65625C6.94792 8.05208 6.625 7.27083 6.625 6.3125C6.625 5.35417 6.94792 4.58333 7.59375 4C8.26042 3.39583 9.36458 3.09375 10.9062 3.09375L24.75 3.125L37.5 34.5938C39 34.5938 39.9896 34.7604 40.4688 35.0938C41.4271 35.7812 41.9062 36.6875 41.9062 37.8125C41.9062 38.75 41.5833 39.5208 40.9375 40.125C40.2917 40.7083 39.1979 41 37.6562 41H29.0312C27.4896 41 26.3854 40.7083 25.7188 40.125C25.0729 39.5208 24.75 38.7396 24.75 37.7812C24.75 36.8438 25.0729 36.0833 25.7188 35.5C26.3854 34.8958 27.4896 34.5938 29.0312 34.5938H30.5938L29.0625 30.6875ZM26.4062 24.2812L21.25 11.5938L16.0625 24.2812H26.4062ZM58.3438 12.625V16.625C61.0312 14.6875 63.1458 13.3958 64.6875 12.75C66.25 12.1042 67.7083 11.7812 69.0625 11.7812C71.1458 11.7812 73.1667 12.5521 75.125 14.0938C76.4583 15.1354 77.125 16.1979 77.125 17.2812C77.125 18.1979 76.8021 18.9792 76.1562 19.625C75.5312 20.25 74.7708 20.5625 73.875 20.5625C73.0833 20.5625 72.25 20.1667 71.375 19.375C70.5 18.5833 69.7188 18.1875 69.0312 18.1875C68.1354 18.1875 66.7917 18.75 65 19.875C63.2292 21 61.0104 22.6875 58.3438 24.9375V34.5938H67.4688C69.0104 34.5938 70.1042 34.8958 70.75 35.5C71.4167 36.0833 71.75 36.8542 71.75 37.8125C71.75 38.75 71.4167 39.5208 70.75 40.125C70.1042 40.7083 69.0104 41 67.4688 41H48.125C46.5833 41 45.4792 40.7083 44.8125 40.125C44.1667 39.5208 43.8438 38.7396 43.8438 37.7812C43.8438 36.8438 44.1667 36.0833 44.8125 35.5C45.4792 34.8958 46.5833 34.5938 48.125 34.5938H51.9375V19.0312H49.625C48.0833 19.0312 46.9792 18.7396 46.3125 18.1562C45.6667 17.5521 45.3438 16.7708 45.3438 15.8125C45.3438 14.875 45.6667 14.1146 46.3125 13.5312C46.9792 12.9271 48.0833 12.625 49.625 12.625H58.3438ZM96.5312 19.0312V31.875C96.5312 33.25 96.8125 34.1562 97.375 34.5938C98.25 35.2812 99.8125 35.625 102.062 35.625C105.333 35.625 108.354 34.9271 111.125 33.5312C112.188 32.9896 113.021 32.7188 113.625 32.7188C114.458 32.7188 115.177 33.0312 115.781 33.6562C116.406 34.2812 116.719 35.0417 116.719 35.9375C116.719 36.7708 116.385 37.4896 115.719 38.0938C114.698 39.0729 112.677 39.9792 109.656 40.8125C106.656 41.625 104.125 42.0312 102.062 42.0312C98.0833 42.0312 95.0938 41.1771 93.0938 39.4688C91.1146 37.7396 90.125 35.625 90.125 33.125V19.0312H87.8125C86.2708 19.0312 85.1667 18.7396 84.5 18.1562C83.8542 17.5521 83.5312 16.7708 83.5312 15.8125C83.5312 14.875 83.8542 14.1146 84.5 13.5312C85.1667 12.9271 86.2708 12.625 87.8125 12.625H90.125V6.84375C90.125 5.30208 90.4167 4.20833 91 3.5625C91.6042 2.89583 92.3854 2.5625 93.3438 2.5625C94.2812 2.5625 95.0417 2.89583 95.625 3.5625C96.2292 4.20833 96.5312 5.30208 96.5312 6.84375V12.625H108.375C109.917 12.625 111.01 12.9271 111.656 13.5312C112.323 14.1146 112.656 14.8854 112.656 15.8438C112.656 16.7812 112.323 17.5521 111.656 18.1562C111.01 18.7396 109.917 19.0312 108.375 19.0312H96.5312ZM138.844 0.46875V7.25H131.219V0.46875H138.844ZM139.719 12.625V34.5938H147.406C148.948 34.5938 150.042 34.8958 150.688 35.5C151.354 36.0833 151.688 36.8542 151.688 37.8125C151.688 38.75 151.354 39.5208 150.688 40.125C150.042 40.7083 148.948 41 147.406 41H125.625C124.083 41 122.979 40.7083 122.312 40.125C121.667 39.5208 121.344 38.7396 121.344 37.7812C121.344 36.8438 121.667 36.0833 122.312 35.5C122.979 34.8958 124.083 34.5938 125.625 34.5938H133.312V19.0312H128.156C126.635 19.0312 125.542 18.7396 124.875 18.1562C124.208 17.5521 123.875 16.7708 123.875 15.8125C123.875 14.875 124.198 14.1146 124.844 13.5312C125.51 12.9271 126.615 12.625 128.156 12.625H139.719ZM174.938 19.0312V34.5938H184.062C185.604 34.5938 186.698 34.8958 187.344 35.5C188.01 36.0833 188.344 36.8542 188.344 37.8125C188.344 38.75 188.01 39.5208 187.344 40.125C186.698 40.7083 185.604 41 184.062 41H164.719C163.177 41 162.073 40.7083 161.406 40.125C160.76 39.5208 160.438 38.7396 160.438 37.7812C160.438 36.8438 160.76 36.0833 161.406 35.5C162.073 34.8958 163.177 34.5938 164.719 34.5938H168.531V19.0312H165.469C163.927 19.0312 162.823 18.7396 162.156 18.1562C161.51 17.5521 161.188 16.7708 161.188 15.8125C161.188 14.875 161.51 14.1146 162.156 13.5312C162.823 12.9271 163.927 12.625 165.469 12.625H168.531V10.1875C168.531 7.39583 169.573 5.08333 171.656 3.25C173.76 1.39583 176.802 0.46875 180.781 0.46875C182.552 0.46875 184.594 0.635417 186.906 0.96875C189.24 1.28125 190.729 1.72917 191.375 2.3125C192.042 2.89583 192.375 3.64583 192.375 4.5625C192.375 5.54167 192.083 6.34375 191.5 6.96875C190.917 7.57292 190.198 7.875 189.344 7.875C188.948 7.875 188.354 7.80208 187.562 7.65625C184.917 7.13542 182.573 6.875 180.531 6.875C178.406 6.875 176.938 7.19792 176.125 7.84375C175.333 8.46875 174.938 9.25 174.938 10.1875V12.625H184.812C186.354 12.625 187.448 12.9271 188.094 13.5312C188.76 14.1146 189.094 14.8854 189.094 15.8438C189.094 16.7812 188.76 17.5521 188.094 18.1562C187.448 18.7396 186.354 19.0312 184.812 19.0312H174.938ZM219.188 41V39.5C217.583 40.3542 215.812 40.9896 213.875 41.4062C211.938 41.8438 210.177 42.0625 208.594 42.0625C205.156 42.0625 202.365 41.1562 200.219 39.3438C198.073 37.5104 197 35.4896 197 33.2812C197 30.5938 198.365 28.1042 201.094 25.8125C203.844 23.5 207.635 22.3438 212.469 22.3438C214.406 22.3438 216.646 22.5521 219.188 22.9688V21.4375C219.188 20.4792 218.771 19.6979 217.938 19.0938C217.125 18.4896 215.562 18.1875 213.25 18.1875C211.354 18.1875 208.896 18.5625 205.875 19.3125C204.75 19.5833 203.875 19.7188 203.25 19.7188C202.396 19.7188 201.667 19.4167 201.062 18.8125C200.479 18.1875 200.188 17.3958 200.188 16.4375C200.188 15.8958 200.292 15.4271 200.5 15.0312C200.708 14.6354 201 14.3229 201.375 14.0938C201.75 13.8438 202.531 13.5521 203.719 13.2188C205.302 12.7812 206.917 12.4375 208.562 12.1875C210.208 11.9167 211.698 11.7812 213.031 11.7812C217.01 11.7812 220.094 12.6458 222.281 14.375C224.49 16.0833 225.594 18.4271 225.594 21.4062V34.5938H226.688C228.229 34.5938 229.323 34.8958 229.969 35.5C230.635 36.0833 230.969 36.8542 230.969 37.8125C230.969 38.75 230.635 39.5208 229.969 40.125C229.323 40.7083 228.229 41 226.688 41H219.188ZM219.188 29.5312C216.625 29.0312 214.26 28.7812 212.094 28.7812C209.49 28.7812 207.25 29.4167 205.375 30.6875C204.208 31.5 203.625 32.3229 203.625 33.1562C203.625 33.7604 203.906 34.25 204.469 34.625C205.51 35.3125 206.938 35.6562 208.75 35.6562C210.292 35.6562 212.031 35.3542 213.969 34.75C215.927 34.1458 217.667 33.3229 219.188 32.2812V29.5312ZM261.844 13.7812C262.615 13.0521 263.406 12.6875 264.219 12.6875C265.135 12.6875 265.885 13.0208 266.469 13.6875C267.073 14.3333 267.375 15.4167 267.375 16.9375V21.0625C267.375 22.6042 267.073 23.6979 266.469 24.3438C265.885 24.9896 265.115 25.3125 264.156 25.3125C263.281 25.3125 262.542 25.0625 261.938 24.5625C261.5 24.1875 261.156 23.4271 260.906 22.2812C260.656 21.1146 260.052 20.25 259.094 19.6875C257.406 18.6875 255.25 18.1875 252.625 18.1875C249.604 18.1875 247.177 19.0729 245.344 20.8438C243.531 22.6146 242.625 24.8542 242.625 27.5625C242.625 30.0625 243.5 32.0417 245.25 33.5C247 34.9375 249.906 35.6562 253.969 35.6562C256.635 35.6562 258.812 35.3854 260.5 34.8438C261.5 34.5104 262.448 33.9479 263.344 33.1562C264.24 32.3438 265.052 31.9375 265.781 31.9375C266.656 31.9375 267.406 32.2604 268.031 32.9062C268.677 33.5521 269 34.3125 269 35.1875C269 36.6042 268.031 37.9479 266.094 39.2188C263.219 41.1146 259.01 42.0625 253.469 42.0625C248.49 42.0625 244.615 41.0312 241.844 38.9688C238.094 36.1979 236.219 32.4062 236.219 27.5938C236.219 23.0312 237.74 19.2604 240.781 16.2812C243.823 13.2812 247.792 11.7812 252.688 11.7812C254.458 11.7812 256.104 11.9479 257.625 12.2812C259.146 12.6146 260.552 13.1146 261.844 13.7812ZM288.719 19.0312V31.875C288.719 33.25 289 34.1562 289.562 34.5938C290.438 35.2812 292 35.625 294.25 35.625C297.521 35.625 300.542 34.9271 303.312 33.5312C304.375 32.9896 305.208 32.7188 305.812 32.7188C306.646 32.7188 307.365 33.0312 307.969 33.6562C308.594 34.2812 308.906 35.0417 308.906 35.9375C308.906 36.7708 308.573 37.4896 307.906 38.0938C306.885 39.0729 304.865 39.9792 301.844 40.8125C298.844 41.625 296.312 42.0312 294.25 42.0312C290.271 42.0312 287.281 41.1771 285.281 39.4688C283.302 37.7396 282.312 35.625 282.312 33.125V19.0312H280C278.458 19.0312 277.354 18.7396 276.688 18.1562C276.042 17.5521 275.719 16.7708 275.719 15.8125C275.719 14.875 276.042 14.1146 276.688 13.5312C277.354 12.9271 278.458 12.625 280 12.625H282.312V6.84375C282.312 5.30208 282.604 4.20833 283.188 3.5625C283.792 2.89583 284.573 2.5625 285.531 2.5625C286.469 2.5625 287.229 2.89583 287.812 3.5625C288.417 4.20833 288.719 5.30208 288.719 6.84375V12.625H300.562C302.104 12.625 303.198 12.9271 303.844 13.5312C304.51 14.1146 304.844 14.8854 304.844 15.8438C304.844 16.7812 304.51 17.5521 303.844 18.1562C303.198 18.7396 302.104 19.0312 300.562 19.0312H288.719ZM335.656 20.125C334.615 19.4792 333.521 19 332.375 18.6875C331.229 18.3542 330.031 18.1875 328.781 18.1875C326.302 18.1875 324.333 18.5938 322.875 19.4062C322.229 19.7604 321.906 20.1458 321.906 20.5625C321.906 21.0417 322.344 21.5104 323.219 21.9688C323.885 22.3021 325.375 22.625 327.688 22.9375C331.938 23.5208 334.896 24.1042 336.562 24.6875C338.75 25.4583 340.438 26.6042 341.625 28.125C342.812 29.6458 343.406 31.25 343.406 32.9375C343.406 35.2292 342.396 37.1458 340.375 38.6875C337.479 40.9167 333.719 42.0312 329.094 42.0312C327.24 42.0312 325.521 41.8646 323.938 41.5312C322.375 41.2188 320.938 40.75 319.625 40.125C319.312 40.3958 318.979 40.6042 318.625 40.75C318.271 40.8958 317.906 40.9688 317.531 40.9688C316.531 40.9688 315.729 40.6458 315.125 40C314.542 39.3333 314.25 38.2292 314.25 36.6875V34.5312C314.25 32.9896 314.542 31.8958 315.125 31.25C315.729 30.5833 316.51 30.25 317.469 30.25C318.24 30.25 318.885 30.4688 319.406 30.9062C319.927 31.3229 320.333 32.0521 320.625 33.0938C321.604 33.9271 322.781 34.5625 324.156 35C325.531 35.4167 327.115 35.625 328.906 35.625C331.844 35.625 334.125 35.1667 335.75 34.25C336.521 33.7917 336.906 33.3125 336.906 32.8125C336.906 31.9792 336.354 31.2917 335.25 30.75C334.146 30.2083 331.865 29.75 328.406 29.375C323.26 28.8333 319.823 27.7917 318.094 26.25C316.365 24.7292 315.5 22.8542 315.5 20.625C315.5 18.3333 316.469 16.4271 318.406 14.9062C321.031 12.8229 324.469 11.7812 328.719 11.7812C330.198 11.7812 331.615 11.9271 332.969 12.2188C334.344 12.4896 335.656 12.9167 336.906 13.5C337.302 13.2083 337.667 12.9896 338 12.8438C338.354 12.6979 338.677 12.625 338.969 12.625C339.844 12.625 340.573 12.9583 341.156 13.625C341.74 14.2708 342.031 15.3646 342.031 16.9062V18.4688C342.031 19.8646 341.865 20.8125 341.531 21.3125C340.865 22.2708 339.958 22.75 338.812 22.75C338.042 22.75 337.365 22.5104 336.781 22.0312C336.198 21.5521 335.823 20.9167 335.656 20.125Z" fill="white"/>
</svg>
